PathFileType	4	(X/Y/Z)	C:\Users\WrightLab\Desktop\Jo\P3_11.trc
DataRate	CameraRate	NumFrames	NumMarkers	Units	OrigDataRate	OrigDataStartFrame	OrigNumFrames
100.00	100.00	       13	19	mm	100.00	327	       653
Frame#	Time	Headset_Front			Headset_Back			Headset_Left			Headset_Right			Left_Shoulder			Right_Shoulder			Sternum			C7			Left Elbow			Right Elbow			Left Wrist			Right Wrist			Left ASIS			Right ASIS			S2			Left Knee			Right Knee			Left Ankle			Right Ankle			
		X1	Y1	Z1	X2	Y2	Z2	X3	Y3	Z3	X4	Y4	Z4	X5	Y5	Z5	X6	Y6	Z6	X7	Y7	Z7	X8	Y8	Z8	X9	Y9	Z9	X10	Y10	Z10	X11	Y11	Z11	X12	Y12	Z12	X13	Y13	Z13	X14	Y14	Z14	X15	Y15	Z15	X16	Y16	Z16	X17	Y17	Z17	X18	Y18	Z18	X19	Y19	Z19	

327	3.260	45.24825	1520.00781	1431.59790	170.41788	1581.48291	1278.34119				-50.80725	1546.85791	1319.55322	258.68823	1346.19836	1203.69263	-101.27037	1348.63892	1201.25049	85.58926	1241.20532	1342.35315	73.10338	1398.17029	1151.18176	349.59012	1022.09595	1218.73499	-169.11426	1002.37482	1178.90869	356.28311	854.32764	1339.00476	-161.65514	812.22571	1303.09399	197.51096	869.93884	1323.08276	-53.84133	887.03882	1344.22241	62.19836	942.43091	1115.91614	214.88838	456.28308	1173.05188	-11.03449	475.46399	1415.98767	181.73134	198.46724	955.70227	26.64064	141.27682	1446.37415	
328	3.270	44.44858	1521.28955	1440.82910	170.38394	1583.17615	1288.91113				-51.41657	1548.51733	1328.89758	257.66083	1348.35962	1213.42078	-101.95074	1350.69189	1209.86841	84.86337	1243.67126	1351.71130	72.20447	1400.17834	1160.23254	346.74820	1023.59552	1226.41418	-169.75441	1004.77917	1188.87610	352.39832	854.73993	1346.48450	-162.46068	814.28162	1313.10999	196.31673	871.62317	1334.23572	-54.61177	889.16412	1353.12256	63.16860	944.84717	1125.96973	217.39342	456.43875	1190.63574	-12.29319	476.04156	1421.26843	181.71379	204.35873	966.40607	26.19382	140.68637	1447.88513	
329	3.280	43.49791	1522.29297	1450.34009	169.47644	1584.57739	1297.53931				-52.34472	1550.35156	1338.10242	257.48215	1350.72070	1222.90576	-102.42536	1352.95593	1218.29321	84.22369	1246.20886	1361.05212	72.13120	1401.59277	1169.06140	344.01651	1024.89441	1234.40552	-170.14557	1007.08954	1198.55884	347.93402	853.77606	1352.42505	-162.84558	816.56158	1323.14600	195.00714	873.33606	1344.02795	-56.02762	891.28473	1362.00879	63.95163	947.12244	1136.67993	220.63924	456.36847	1209.56421	-14.50910	477.43280	1425.46582	181.58153	210.01282	979.31573	25.58410	140.72151	1448.83118	
330	3.290	42.32248	1523.51111	1459.62146	168.53653	1586.28259	1306.10913				-52.97537	1551.94592	1347.18970	256.41583	1353.46570	1231.86816	-103.05864	1355.10693	1226.88123	82.77335	1249.25598	1370.29370	71.51095	1403.76465	1177.64075	341.56445	1026.93542	1241.38074	-170.48958	1008.85028	1206.85535	346.30246	855.78192	1359.58960	-163.19661	819.21063	1333.65857	194.02531	876.55804	1356.36340	-57.37452	893.95422	1370.65234	65.08441	949.37512	1145.50317	222.86374	456.16418	1229.36646	-16.51332	477.87079	1429.12903	181.81883	217.11465	991.40155	25.10899	140.72334	1449.34351	
331	3.300	41.71943	1524.49377	1468.15503	168.43637	1588.05957	1316.16907				-54.04960	1553.74036	1356.25708	255.99609	1355.22217	1239.93347	-103.44592	1357.07214	1235.52600	82.16862	1251.68823	1379.42810	70.64214	1405.36914	1186.69250	338.63400	1028.82324	1250.43872	-171.31442	1011.61310	1217.06506	343.08734	856.30475	1367.23169	-163.83632	821.57635	1344.10767	192.43976	879.06171	1366.53821	-58.51312	895.85645	1378.79504	65.63714	952.37146	1155.12097	224.07150	455.41608	1249.76367	-18.22944	477.54535	1432.58191	182.62041	223.61656	1005.64337	24.38038	140.90714	1450.04346	
332	3.310	40.87753	1525.88293	1477.53711	167.69365	1589.36902	1326.24854				-54.39035	1555.42932	1365.17297	255.57872	1358.12329	1249.33289	-103.93375	1359.24329	1243.87183	81.21809	1254.05652	1388.21387	70.36281	1407.64258	1195.35156	336.12311	1030.01355	1258.46436	-171.69682	1013.47461	1226.94458	338.98715	857.33990	1374.36072	-165.36238	824.78784	1355.25134	191.09590	881.24353	1376.10620	-59.78404	898.12885	1386.89929	66.82893	954.04028	1164.69629	225.71579	456.19907	1269.50464	-19.52848	477.12082	1436.42029	182.93481	230.54790	1019.73767	24.18789	140.79128	1450.18408	
333	3.320	39.97675	1526.81079	1485.79285	166.54782	1590.25171	1334.40649				-55.72650	1557.00696	1374.13647	254.77119	1359.61133	1258.00867	-104.61410	1361.08618	1252.40991	80.00537	1256.50378	1397.63330	68.82000	1409.27979	1204.82336	334.13635	1031.55774	1266.21643	-172.47986	1015.32605	1236.87573	335.98584	857.23566	1380.71606	-166.61813	827.78827	1366.06763	189.82690	881.96295	1385.53357	-60.78365	899.65845	1395.10730	67.56867	955.85596	1173.38416	226.52725	456.12741	1290.83923	-20.06755	476.43866	1439.98157	183.81151	238.55133	1035.09558	23.90093	140.61163	1450.45825	
334	3.330	39.16024	1527.53345	1495.17419							-56.22882	1558.48389	1383.08679	254.16223	1361.83545	1267.74158	-104.73087	1362.46289	1261.09399	78.84764	1258.19397	1405.96655	68.14868	1410.47180	1214.02466	331.25732	1032.67090	1274.09534	-173.75394	1017.63312	1245.50574	332.22128	857.76544	1388.18335	-167.99727	830.19336	1377.42761	188.43225	883.83777	1394.36560	-62.15503	900.79626	1403.01733	68.10175	957.38611	1181.37183	227.03069	456.75430	1312.13843	-20.53334	475.91238	1443.32971	183.76259	245.30478	1052.01782	23.78284	140.53766	1450.46985	
335	3.340	38.47206	1528.98816	1504.04651	165.91052	1593.81873	1354.52209				-56.74281	1559.64746	1391.61792	253.75928	1363.25391	1276.40540	-105.26006	1364.09448	1269.56213	78.29596	1259.66882	1414.51221	67.89851	1412.19434	1222.59631	329.51260	1033.61621	1282.32739	-174.54002	1018.06555	1255.88831	329.60287	858.31531	1395.88660	-169.22163	832.39978	1388.94800	187.75748	886.32117	1404.20178	-62.86352	901.77368	1410.51831	67.93953	958.93445	1190.21057	226.25092	456.42258	1334.14795	-21.32902	475.98184	1445.86621	183.78073	251.51929	1069.68848	23.66264	140.43552	1450.43982	
336	3.350	37.46476	1529.97192	1512.23438	164.86191	1595.04187	1361.45837				-57.27547	1560.55664	1400.24927	253.48366	1364.61060	1285.73035	-105.93318	1365.44495	1278.30566	77.53220	1261.57678	1423.93201	67.40425	1413.40930	1231.47375	327.71219	1033.87817	1290.20105	-175.80310	1019.25623	1264.53394	325.81195	858.96271	1403.80444	-170.72874	835.32410	1400.16577	186.86290	887.69525	1412.74817	-63.50542	902.07233	1417.93896	69.33178	959.92609	1198.49719	227.59492	458.09467	1355.17151	-21.94923	476.14020	1447.95178	183.89864	257.85016	1087.37427	23.42625	140.39877	1450.40393	
337	3.360	36.44137	1531.73303	1522.42712							-58.16547	1562.07202	1409.25732	252.94910	1365.90308	1294.78809	-106.43170	1366.84155	1286.69006	77.17890	1261.74634	1431.46692	67.02831	1415.01221	1240.49524	325.60956	1035.05518	1299.12170	-177.19702	1020.96399	1274.86914	323.33862	858.65759	1410.25183	-172.07303	837.62640	1411.79211	186.57147	889.37860	1421.76843	-64.51987	902.75769	1425.89624	69.10814	960.70862	1206.98254	227.17116	460.10098	1375.86572	-22.90491	476.38516	1449.98474	184.87947	263.07697	1107.00623	23.27274	140.39694	1450.24524	
338	3.370	35.76643	1532.14978	1530.97864	164.24734	1597.26453	1381.06091				-59.01319	1563.28345	1417.96338	252.65359	1366.58875	1303.96948	-106.95010	1367.92188	1295.50305	76.42594	1262.89160	1440.17529	66.59794	1416.74524	1248.96887	324.20563	1035.18738	1307.28320	-178.27824	1022.09448	1285.78784	319.64737	859.19177	1418.60339	-173.66615	840.28357	1423.42139	185.83110	889.91577	1430.03748	-65.19183	903.15649	1433.18323	70.29844	961.42358	1213.77588	227.34607	462.77109	1397.38379	-23.20964	476.29382	1451.96790	185.30482	267.27689	1126.04529	23.20544	140.38348	1450.09167	
339	3.380	35.15050	1532.82263	1538.58801	163.43835	1597.93774	1389.21375				-59.02203	1564.77441	1426.35950	252.33549	1367.49524	1312.86084	-107.07360	1369.00195	1303.86475	75.85258	1263.42383	1449.63623	66.09762	1416.86853	1257.25403	322.49789	1035.53345	1316.60425	-180.03583	1022.51801	1294.88037	316.79840	858.91583	1426.43982	-174.96260	842.64014	1435.19482	185.81891	891.96075	1438.78345	-65.67857	903.67603	1440.46765	69.74197	962.26648	1221.38721	226.53549	464.55573	1418.65027	-23.63942	476.42218	1454.27344	186.05792	272.01437	1145.79675	23.06981	140.16893	1449.72998	
